<?xml version="1.0" encoding="UTF-8"?>
<svg width="384px" height="204px" viewBox="0 0 384 204" version="1.1" xmlns="http://www.w3.org/2000/svg" xmlns:xlink="http://www.w3.org/1999/xlink">
    <title>9C1F0E91-863E-4B8E-A36C-77790C24D8C4</title>
    <g id="Log-in-/-sign-up" stroke="none" stroke-width="1" fill="none" fill-rule="evenodd">
        <g id="Group" transform="translate(-148, -298)" fill="#FFFFFF">
            <path d="M163.879224,298 L165.500668,298 L166.739539,298.011018 C174.590077,298.117644 177.199203,299.082378 179.713772,306.25866 C180.957268,309.80745 181.663274,317.876301 182.062822,326.281358 L182.120485,327.544115 C182.499202,336.183038 182.568084,344.955405 182.575928,349.35566 L182.571939,352.252992 C204.101775,340.379491 219.097882,312.035605 221.616916,307.255252 C224.283635,303.386603 226.850321,302.565535 230.699112,304.102315 L232.22362,305.020834 C232.474625,305.173736 232.723844,305.326737 232.970909,305.480123 L233.523016,305.826015 C239.918221,309.871831 244.638747,314.33163 241.02011,324.39311 C230.21741,342.982924 218.567385,355.9169 212.880867,361.61446 L212.45532,362.038434 C211.076802,363.403927 210.101844,364.290989 209.645263,364.672973 L208.987922,365.226784 C207.103356,366.83317 206.049681,367.966219 207.008936,369.221994 C219.081752,388.882477 224.050731,412.401482 226.370555,416.570235 L226.440047,416.690614 C228.675189,420.413421 230.245522,421.978149 235.750261,422.050549 L236.160135,422.053193 C238.843208,422.053193 252.858996,420.137949 274.410742,417.723661 L278.792111,417.23768 C303.799134,414.491899 337.777553,411.247051 375.538061,409.438758 C449.578274,405.893087 484,434.284966 484,434.284966 L483.689579,434.21635 C483.506187,434.178593 483.246021,434.128922 482.921166,434.07691 L482.377948,433.997134 L481.981932,433.947621 C478.465042,433.539135 471.193896,433.5176 467.054299,439.336835 C464.724889,441.895656 463.397704,442.539882 459.327707,443.115838 C443.763252,443.115838 435.9921,454.720764 429.531188,473.368421 L427.808431,471.877724 C409.461623,456.129709 397.882492,450.609436 357.408536,448.85885 C317.351837,447.12631 276.92651,453.475988 255.680905,457.592547 L253.126513,458.09474 C232.695932,462.17032 219.05444,459.76787 214.881211,454.560977 L213.893608,453.317834 C210.04287,448.407889 205.875788,442.127095 203.303974,428.399238 L203.172382,427.682504 C199.335828,406.506159 188.859368,390.392414 184.292659,386.258602 C181.490913,383.873486 180.087104,384.544237 178.952569,386.258602 C177.818034,387.972967 172.750057,411.749867 174.689019,435.962431 L174.684732,436.457333 C174.627966,439.498362 173.961693,440.774346 170.017173,440.774346 C165.865046,440.774346 153.988825,437.66196 150.67722,434.284966 C148.469483,432.033637 147.627184,428.390508 148.150322,423.355578 L148.228734,422.192084 C148.61354,416.836563 149.429702,409.863784 150.67722,401.273748 L150.977082,398.761899 C155.519016,360.420235 157.478987,330.079021 155.767654,311.316248 C155.767654,309.285005 155.466452,307.358984 155.466452,306.519919 L155.471876,305.895674 C155.526863,302.950808 156.071813,298.740176 160.228661,298.00854 L163.879224,298 Z M469.018611,318.280702 L469.248876,318.280702 L469.443326,318.286616 C471.417552,318.396785 478.517133,320.093997 478.517133,327.349832 L478.5405,331.606584 L478.538119,333.330917 C478.490095,341.596839 477.841655,354.091968 472.952804,369.655001 L472.676816,370.522763 C466.106173,390.930931 469.681667,398.088683 470.572018,399.303396 C471.462369,400.518109 476.927119,402.447708 480.800615,398.088683 C475.722066,370.372053 488.03207,351.902803 489.520243,350.114594 C491.008415,348.326385 492.979957,347.97259 496.046969,348.709875 C498.442486,349.984597 500.516462,352.552916 499.425015,359.178731 C494.859244,375.635081 495.481747,396.608457 496.705279,400.364982 C498.46972,403.901611 502.520321,401.916693 503.763543,399.457657 L503.837543,399.303396 C511.361793,383.224649 516.208601,360.748478 516.680889,356.425196 L516.694872,356.289279 C517.074943,352.324834 518.845099,349.537102 524.530572,350.114594 C529.49286,351.473909 532.958209,354.285244 531.76295,363.611872 L530.832462,367.657103 C526.392051,387.142035 524.894103,395.99096 515.630274,415.909861 L514.339875,418.673951 C508.028622,432.142782 500.639664,447.192985 492.173,463.824561 C486.230724,456.207054 484.789891,449.076392 487.850502,442.432577 L488.376514,441.331711 C491.623846,434.446655 495.781944,422.445932 500.850808,405.329543 C492.304983,406.801582 486.384105,405.46639 483.088174,401.323967 C474.025806,407.70976 465.506214,406.631332 457.529399,398.088683 C452.968631,402.915923 447.989158,405.329543 442.590982,405.329543 C432.549021,404.921724 426.349974,398.732988 423.993842,386.763336 C421.029526,391.64178 416.264526,396.231435 409.698842,400.532303 C400.264223,404.283611 392.822637,403.088135 387.374083,396.945875 C376.040583,407.160285 367.569442,407.160285 361.960661,396.945875 C358.610272,386.328404 362.846142,379.350314 362.846142,377.050507 C362.846142,374.750699 361.108005,375.224671 360.079879,375.743887 C348.690061,384.349226 349.558075,398.074489 348.793466,399.303396 C348.028857,400.532303 346.955514,401.323967 343.987883,401.323967 C340.649252,401.851744 337.692616,400.773315 335.117975,398.088683 C328.820237,401.515724 323.903342,402.76336 320.367288,401.831592 C315.063208,400.433939 312.784011,396.169442 312.784011,389.396077 L312.790844,388.665021 C312.91461,381.804278 314.67827,370.731644 314.67827,369.605355 C314.67827,368.43811 314.264249,367.138547 312.784011,367.830684 C301.933789,373.169086 300.115384,393.114511 299.532357,396.169442 L299.347797,397.12898 C298.836349,399.728556 298.279401,401.749908 296.285904,402.447708 C294.053187,403.229244 291.337653,403.655039 287.456555,403.229244 L285.978554,402.900464 C284.165723,402.489666 283.310531,402.173962 281.912091,400.532303 C280.757823,399.177283 280.490129,395.992777 281.10901,390.978786 C270.287615,398.741766 260.500854,402.19016 251.748729,401.323967 L251.47297,401.3163 C246.634906,401.0644 225.703002,394.53636 228.690439,371.482209 C231.151533,356.610211 243.339764,344.376928 253.778011,338.276079 C262.794618,332.95353 271.201311,339.203692 273.922739,343.648113 L274.501472,344.917401 C277.267176,351.041264 279.744506,357.793339 274.456251,367.138547 C264.490299,378.696373 250.512992,382.359669 250.512992,382.359669 C256.621306,397.217629 276.864829,388.081797 280.85245,386.106051 L281.537898,385.755393 L281.692652,384.080287 C283.634651,364.164743 288.570479,350.945007 289.513463,345.447703 L289.582652,345.007493 C290.338185,339.658478 292.197906,337.711029 298.329939,337.00283 L299.293952,337.069489 C303.80979,337.424045 305.474753,338.268445 306.054673,342.656361 L306.272001,344.449983 C306.707398,348.175322 306.92447,350.88939 306.92447,350.88939 C311.805526,345.866798 320.367288,339.203692 326.261783,339.203692 L326.740977,339.208942 C332.269131,339.333056 335.58497,341.714012 333.850541,352.29196 L333.773108,352.750336 C331.576193,365.673396 328.894395,375.982382 327.712961,384.317005 L327.52336,385.705478 C326.571057,392.974057 326.908196,395.547485 327.712961,396.169442 C329.245171,397.676539 332.544428,396.528047 333.773108,394.589025 C335.001789,392.650003 336.584112,384.317005 339.822396,370.522763 L340.256798,367.53117 C341.557357,358.388715 342.178156,352.328397 343.064884,347.593896 L343.135459,347.222842 C344.15544,341.942965 345.878057,339.658478 351.521794,339.658478 C356.664353,340.191328 357.92588,342.73863 357.165532,346.284015 C356.126437,350.500521 356.928025,352.835882 357.124817,353.314606 L357.165532,353.407236 C361.268084,349.014193 363.802085,346.784567 367.500021,345.007493 L367.93141,344.806853 C371.703445,343.10895 378.077955,341.678586 380.859423,346.284015 C383.163091,351.474162 381.089324,359.881605 379.201491,365.109246 L378.92708,365.850825 C376.977571,370.99215 374.193696,382.359669 375.30884,390.619639 C376.423984,398.879609 386.286783,395.006853 386.286783,395.006853 C379.155748,370.040212 393.043921,353.533201 395.841895,350.114594 L396.098864,349.808755 C399.11897,346.302182 407.118527,339.878383 413.418412,345.007493 C419.906354,350.28971 423.993842,361.203063 419.547368,371.482209 C414.750267,378.733849 407.779275,384.161526 398.63439,387.765239 C398.63439,393.368041 400.724254,396.428253 404.903981,396.945875 C410.086732,397.463498 416.450019,392.601429 423.993842,382.359669 C427.219337,359.567567 435.363143,346.928346 448.425262,344.442008 C456.146796,343.74735 460.182331,348.611417 461.070566,349.838288 L461.260117,350.114594 C464.914152,337.731261 465.693465,328.773535 465.768778,323.825606 L465.775202,322.994185 C465.775202,318.810587 467.202946,318.340177 468.668263,318.287366 L469.018611,318.280702 Z M413.31362,424.45614 L410.8,447.65764 L428.954341,449.508772 L429.419044,445.219419 L416.523433,443.904501 L417.139516,438.217859 L428.728818,439.399577 L429.158316,435.435176 L417.569014,434.253457 L418.107647,429.281707 L430.735297,430.569302 L431.2,426.279949 L413.31362,424.45614 Z M246.933953,425.776459 C245.1053,426.031347 243.506096,426.581283 242.136294,427.426284 C240.766492,428.271286 239.659764,429.327701 238.816076,430.595561 C237.972389,431.863422 237.390291,433.292149 237.069765,434.881786 C236.749239,436.471424 236.714342,438.15091 236.965074,439.920295 C237.209538,441.645445 237.705148,443.217156 238.451919,444.635473 C239.19869,446.053791 240.152179,447.245926 241.312416,448.211914 C242.472653,449.177902 243.827759,449.874258 245.377774,450.301002 C246.92779,450.727747 248.617099,450.813674 250.445753,450.558786 C251.917595,450.353632 253.235423,449.944408 254.399276,449.331101 C255.563129,448.717793 256.542655,447.9272 257.337884,446.959299 C258.133112,445.991397 258.724854,444.87144 259.113126,443.599396 C259.501398,442.327351 259.657439,440.941094 259.581255,439.440584 L254.496733,440.149293 C254.521686,441.769715 254.151531,443.129431 253.386258,444.228482 C252.620984,445.327534 251.435542,445.988952 249.829895,446.212755 C248.64796,446.3775 247.612322,446.290676 246.722948,445.952281 C245.833574,445.613887 245.07916,445.104449 244.459684,444.423953 C243.840208,443.743457 243.346798,442.949548 242.97944,442.0422 C242.612081,441.134852 242.357888,440.183553 242.216851,439.188274 C242.069546,438.14876 242.04402,437.126118 242.140275,436.120318 C242.236529,435.114519 242.487045,434.194362 242.891832,433.359822 C243.296619,432.525282 243.87944,431.823815 244.640314,431.255399 C245.401188,430.686984 246.372578,430.32041 247.554512,430.155665 C248.201231,430.065522 248.834952,430.084322 249.455693,430.212064 C250.076435,430.339806 250.647594,430.559033 251.169188,430.869751 C251.690783,431.180469 252.142937,431.562884 252.525664,432.017006 C252.908392,432.471128 253.186664,432.990549 253.360488,433.575283 L258.445011,432.866574 C258.094589,431.517059 257.543108,430.353467 256.790551,429.375762 C256.037994,428.398058 255.148061,427.61431 254.120724,427.024495 C253.093387,426.43468 251.967703,426.033377 250.743638,425.820573 C249.519574,425.607769 248.249691,425.593064 246.933953,425.776459 Z M389.672595,422.070175 L389.2,426.461909 L396.489683,427.210244 L394.405969,446.573795 L399.754008,447.122807 L401.837722,427.759256 L409.127405,428.507591 L409.6,424.115857 L389.672595,422.070175 Z M273.416825,422.21326 C271.573217,422.467986 269.960936,423.017575 268.579932,423.862042 C267.198929,424.70651 266.08315,425.762258 265.232563,427.029317 C264.381976,428.296376 263.795118,429.724201 263.471971,431.312834 C263.148823,432.901467 263.113642,434.579892 263.366424,436.348159 C263.612887,438.07222 264.11255,439.642937 264.865428,441.060359 C265.618305,442.47778 266.579592,443.669162 267.749317,444.63454 C268.919041,445.599918 270.285229,446.295834 271.84792,446.722308 C273.410611,447.148783 275.113735,447.234656 276.957342,446.979929 C278.823432,446.722096 280.442124,446.177256 281.813467,445.345394 C283.184809,444.513531 284.297336,443.475137 285.151083,442.230181 C286.00483,440.985225 286.594848,439.579503 286.921155,438.012974 C287.247462,436.446444 287.287383,434.801174 287.04092,433.077113 C286.788138,431.308846 286.283735,429.704974 285.527698,428.265449 C284.771661,426.825925 283.807214,425.61244 282.634329,424.624958 C281.461445,423.637477 280.098508,422.924207 278.545479,422.485128 C276.992449,422.046048 275.282915,421.955427 273.416825,422.21326 Z M366.056492,420.877193 L365.2,444.120692 L383.818317,444.736842 L383.97666,440.439725 L370.751472,440.002054 L370.961396,434.305117 L382.84689,434.698453 L382.993238,430.726875 L371.107744,430.333539 L371.291278,425.352789 L384.241657,425.781366 L384.4,421.484248 L366.056492,420.877193 Z M309.189975,419.684211 L304.414309,419.850837 L304.95773,435.398976 L304.892755,435.401243 L294.668053,420.190891 L289.6,420.367719 L290.410025,443.54386 L295.185691,443.377233 L294.643405,427.861554 L294.70838,427.859287 L304.899459,443.038313 L310,442.860351 L309.189975,419.684211 Z M326.834286,418.491228 C324.959991,418.491228 323.274293,418.815422 321.777143,419.46382 C320.279993,420.112218 319.017148,421.006547 317.988571,422.146833 C316.959995,423.287119 316.171431,424.623022 315.622857,426.154583 C315.074283,427.686144 314.8,429.346242 314.8,431.134926 C314.8,432.878893 315.074283,434.505453 315.622857,436.014655 C316.171431,437.523857 316.959995,438.837403 317.988571,439.95533 C319.017148,441.073258 320.279993,441.950818 321.777143,442.588036 C323.274293,443.225255 324.959991,443.54386 326.834286,443.54386 C328.342865,443.54386 329.725708,443.320277 330.982857,442.873106 C332.240006,442.425935 333.337138,441.777547 334.274286,440.927922 C335.211433,440.078297 335.965711,439.049819 336.537143,437.842458 C337.108574,436.635096 337.462856,435.282424 337.6,433.784401 L332.388571,433.784401 C332.182856,435.394216 331.617147,436.690993 330.691429,437.674769 C329.76571,438.658546 328.480008,439.150426 326.834286,439.150426 C325.622851,439.150426 324.59429,438.921255 323.748571,438.462904 C322.902853,438.004554 322.217145,437.395293 321.691429,436.635102 C321.165712,435.874911 320.782858,435.019709 320.542857,434.069471 C320.302856,433.119232 320.182857,432.14106 320.182857,431.134926 C320.182857,430.084074 320.302856,429.066775 320.542857,428.082999 C320.782858,427.099222 321.165712,426.221662 321.691429,425.450292 C322.217145,424.678922 322.902853,424.064071 323.748571,423.605721 C324.59429,423.147371 325.622851,422.918199 326.834286,422.918199 C327.497146,422.918199 328.131426,423.024401 328.737143,423.236807 C329.34286,423.449213 329.885712,423.745459 330.365714,424.125555 C330.845717,424.50565 331.245713,424.947225 331.565714,425.450292 C331.885716,425.95336 332.091428,426.506726 332.182857,427.110407 L337.394286,427.110407 C337.234285,425.724176 336.845717,424.494474 336.228571,423.421264 C335.611425,422.348054 334.828576,421.448135 333.88,420.721482 C332.931424,419.99483 331.857149,419.441464 330.657143,419.061368 C329.457137,418.681273 328.182864,418.491228 326.834286,418.491228 Z M341.613404,418.491228 L341.2,441.997465 L346.407805,442.087686 L346.569345,432.902475 L351.77715,432.992696 C353.081872,433.015299 354.016682,433.316901 354.581608,433.897511 C355.146534,434.478121 355.50664,435.38449 355.661935,436.616645 C355.778021,437.56271 355.860162,438.552081 355.908362,439.584788 C355.956562,440.617495 356.117838,441.509443 356.392195,442.260657 L361.6,442.350877 C361.362537,442.017442 361.187144,441.613736 361.073816,441.139746 C360.960489,440.665756 360.880816,440.164913 360.834795,439.637202 C360.788774,439.109492 360.759146,438.59305 360.74591,438.087862 L360.711921,437.001837 C360.708903,436.92187 360.705839,436.844536 360.702729,436.769836 C360.668923,436.176473 360.596419,435.582448 360.485214,434.987744 C360.374009,434.39304 360.190069,433.846482 359.933387,433.348053 C359.676704,432.849625 359.34147,432.415707 358.927675,432.046285 C358.513879,431.676863 357.987881,431.398809 357.349665,431.212115 L357.350823,431.146271 C358.686923,430.642504 359.656846,429.890903 360.260621,428.891446 C360.864396,427.891988 361.178438,426.700914 361.202756,425.318187 C361.218582,424.418317 361.073023,423.57604 360.766074,422.791329 C360.459125,422.006618 360.006802,421.312707 359.409091,420.709575 C358.811379,420.106442 358.089833,419.627411 357.24443,419.272467 C356.399026,418.917523 355.445604,418.730859 354.384136,418.71247 L341.613404,418.491228 Z M277.755012,427.168546 C278.641978,427.492124 279.39513,427.984543 280.014491,428.645818 C280.633852,429.307092 281.129051,430.08739 281.500103,430.986732 C281.871155,431.886075 282.13013,432.832732 282.277036,433.82673 C282.417691,434.778431 282.437677,435.719286 282.336995,436.649323 C282.236314,437.579361 281.98335,438.438079 281.578096,439.225505 C281.172843,440.01293 280.590819,440.678396 279.832005,441.221923 C279.073192,441.765451 278.104433,442.115974 276.9257,442.273506 C275.746966,442.431037 274.714132,442.348014 273.827167,442.024436 C272.940201,441.700858 272.187831,441.213727 271.570032,440.563026 C270.952234,439.912326 270.46016,439.153178 270.093797,438.285558 C269.727434,437.417939 269.473928,436.508292 269.333273,435.556591 C269.186367,434.562593 269.160911,433.584728 269.256905,432.622967 C269.352898,431.661206 269.602736,430.781339 270.006427,429.983339 C270.410117,429.185339 270.99136,428.514586 271.750174,427.971059 C272.508987,427.427532 273.477746,427.077008 274.656479,426.919477 C275.835213,426.761946 276.868047,426.844968 277.755012,427.168546 Z M347.319518,422.070175 L353.178777,422.175498 C354.405139,422.197543 355.32024,422.488875 355.924105,423.049504 C356.527971,423.610132 356.819593,424.498508 356.798979,425.714659 C356.777573,426.977584 356.455527,427.884172 355.832832,428.43445 C355.210137,428.984728 354.285622,429.248841 353.059259,429.226797 L347.2,429.121474 L347.319518,422.070175 Z M448.55015,365.451214 C446.060739,368.767203 445.144893,371.529847 442.812094,377.208185 C440.228567,385.176043 440.132975,390.870519 442.525319,394.291611 C444.015627,396.14536 445.859606,396.317848 448.057254,394.809077 C451.737426,391.948662 452.974879,389.050976 454.802699,384.104124 L455.448105,380.763222 C456.55433,374.914219 456.770412,372.476333 455.701987,367.076328 C455.033418,364.450548 451.826474,361.691736 448.55015,365.451214 Z M401.817186,369.468897 C399.638237,373.891952 398.639482,378.302904 398.82092,382.701754 C402.374747,381.732515 405.743868,379.53309 408.928282,376.103479 C413.944603,369.468897 411.590452,365.737711 410.369427,364.284765 C408.536623,362.900348 404.812992,363.2262 401.817186,369.468897 Z M258.800214,357.418565 C252.551913,362.365042 249.630911,369.59979 250.03721,379.122807 C255.053159,378.079356 259.540561,375.550207 263.499414,371.535362 C269.778615,363.715552 266.480539,353.207316 258.800214,357.418565 Z M206.8,479.333333 L214.016696,479.333333 C217.191668,479.413534 219.582609,480.330818 221.189565,482.085213 C222.79653,483.839608 223.6,486.501235 223.6,490.070175 C223.6,493.639116 222.79653,496.300743 221.189565,498.055138 C219.582609,499.809533 217.191668,500.726817 214.016696,500.807018 L206.8,500.807018 L206.8,479.333333 Z M209.2,499.614035 L213.559909,499.614035 C215.103425,499.614035 216.43143,499.449453 217.543964,499.120284 C218.656498,498.791115 219.573573,498.267445 220.295216,497.549258 C221.01686,496.831071 221.548062,495.903426 221.888838,494.766297 C222.229614,493.629168 222.4,492.262638 222.4,490.666667 C222.4,489.070696 222.229614,487.704166 221.888838,486.567036 C221.548062,485.429907 221.01686,484.502263 220.295216,483.784076 C219.573573,483.065889 218.656498,482.542218 217.543964,482.213049 C216.43143,481.88388 215.103425,481.719298 213.559909,481.719298 L209.2,481.719298 L209.2,499.614035 Z M227.2,479.333333 L229.6,479.333333 L229.6,500.807018 L227.2,500.807018 L227.2,479.333333 Z M232,479.333333 L234.131579,479.333333 L241,498.551378 L241.059211,498.551378 L247.868421,479.333333 L250,479.333333 L242.154605,500.807018 L239.815789,500.807018 L232,479.333333 Z M251.2,479.333333 L253.6,479.333333 L253.6,500.807018 L251.2,500.807018 L251.2,479.333333 Z M258.05743,494.403769 C258.037372,495.522362 258.207863,496.4579 258.568907,497.210408 C258.929952,497.962917 259.42638,498.562881 260.058208,499.010319 C260.690035,499.457756 261.437185,499.778076 262.29968,499.971288 C263.162175,500.164499 264.08483,500.261104 265.067673,500.261104 C265.629297,500.261104 266.241058,500.179753 266.902972,500.017048 C267.564887,499.854343 268.181662,499.595037 268.753315,499.239121 C269.324969,498.883204 269.801339,498.425605 270.182442,497.866308 C270.563544,497.307011 270.754092,496.63078 270.754092,495.837595 C270.754092,495.227453 270.618703,494.698671 270.34792,494.251234 C270.077136,493.803796 269.726126,493.427548 269.294879,493.122476 C268.863631,492.817405 268.387261,492.568268 267.865752,492.375056 C267.344244,492.181844 266.832772,492.024227 266.331322,491.902198 L261.547508,490.712427 C260.92571,490.549723 260.318964,490.346345 259.727252,490.102288 C259.135541,489.858231 258.619054,489.532827 258.177778,489.126066 C257.736502,488.719304 257.380477,488.221029 257.109694,487.631225 C256.838911,487.041421 256.703521,486.31943 256.703521,485.465231 C256.703521,484.936441 256.80381,484.316139 257.00439,483.604307 C257.20497,482.892474 257.581052,482.221328 258.132648,481.590848 C258.684243,480.960368 259.441422,480.426501 260.404207,479.989233 C261.366992,479.551964 262.600541,479.333333 264.104893,479.333333 C265.167968,479.333333 266.180882,479.475698 267.143667,479.760431 C268.106452,480.045164 268.948876,480.472257 269.670965,481.041723 C270.393053,481.611189 270.969713,482.317926 271.40096,483.161956 C271.832208,484.005986 272.047828,484.987283 272.047828,486.105877 L270.00192,486.105877 C269.961804,485.272016 269.776271,484.544941 269.445313,483.92463 C269.114356,483.304319 268.683115,482.785706 268.151578,482.368775 C267.62004,481.951845 267.00828,481.636609 266.316278,481.42306 C265.624276,481.20951 264.897184,481.102737 264.13498,481.102737 C263.432949,481.102737 262.756001,481.179003 262.104115,481.331539 C261.45223,481.484074 260.880585,481.728128 260.389163,482.063706 C259.897742,482.399284 259.501602,482.84163 259.200732,483.390758 C258.899861,483.939886 258.749429,484.621201 258.749429,485.434724 C258.749429,485.943176 258.834674,486.385522 259.005167,486.761777 C259.17566,487.138031 259.411338,487.458351 259.712209,487.722746 C260.013079,487.987141 260.359075,488.200687 260.750206,488.363392 C261.141337,488.526096 261.557535,488.658292 261.998811,488.759982 L267.233928,490.071781 C267.996133,490.275162 268.713196,490.524299 269.385139,490.819201 C270.057083,491.114103 270.648786,491.480183 271.160265,491.917452 C271.671745,492.35472 272.072899,492.888587 272.36374,493.519067 C272.654582,494.149547 272.8,494.912213 272.8,495.807088 C272.8,496.051145 272.774928,496.376549 272.724783,496.783311 C272.674638,497.190072 272.554291,497.62225 272.36374,498.079856 C272.173189,498.537463 271.90241,499.000147 271.551395,499.467923 C271.200379,499.935698 270.718994,500.357707 270.107225,500.733961 C269.495455,501.110216 268.738276,501.415282 267.835665,501.64917 C266.933055,501.883058 265.849938,502 264.586283,502 C263.322628,502 262.149251,501.852551 261.066118,501.557649 C259.982985,501.262747 259.06033,500.810232 258.298125,500.20009 C257.535921,499.589948 256.949233,498.806944 256.538043,497.851054 C256.126854,496.895165 255.951349,495.746081 256.011523,494.403769 L258.05743,494.403769 Z M275.2,479.333333 L277.6,479.333333 L277.6,500.807018 L275.2,500.807018 L275.2,479.333333 Z M282.4,490.070175 C282.4,491.245434 282.550092,492.405477 282.850279,493.550341 C283.150467,494.695204 283.615267,495.718474 284.244693,496.620181 C284.874119,497.521888 285.682677,498.246282 286.670391,498.793385 C287.658105,499.340488 288.839472,499.614035 290.214525,499.614035 C291.589579,499.614035 292.766103,499.340488 293.744134,498.793385 C294.722165,498.246282 295.525881,497.521888 296.155307,496.620181 C296.784733,495.718474 297.249533,494.695204 297.549721,493.550341 C297.849908,492.405477 298,491.245434 298,490.070175 C298,488.874654 297.849908,487.709545 297.549721,486.574813 C297.249533,485.440081 296.784733,484.421877 296.155307,483.52017 C295.525881,482.618463 294.722165,481.894069 293.744134,481.346966 C292.766103,480.799863 291.589579,480.526316 290.214525,480.526316 C288.839472,480.526316 287.658105,480.799863 286.670391,481.346966 C285.682677,481.894069 284.874119,482.618463 284.244693,483.52017 C283.615267,484.421877 283.150467,485.440081 282.850279,486.574813 C282.550092,487.709545 282.4,488.874654 282.4,490.070175 Z M280,490.68192 C280,489.176903 280.212182,487.74309 280.636553,486.38044 C281.060923,485.017789 281.69747,483.812776 282.546211,482.765366 C283.394952,481.717955 284.460915,480.884107 285.744131,480.263795 C287.027347,479.643484 288.517674,479.333333 290.215156,479.333333 C291.912639,479.333333 293.397913,479.643484 294.671025,480.263795 C295.944137,480.884107 297.005048,481.717955 297.853789,482.765366 C298.70253,483.812776 299.339077,485.017789 299.763447,486.38044 C300.187818,487.74309 300.4,489.176903 300.4,490.68192 C300.4,492.186937 300.187818,493.62075 299.763447,494.983401 C299.339077,496.346051 298.70253,497.54598 297.853789,498.583221 C297.005048,499.620463 295.944137,500.449227 294.671025,501.069538 C293.397913,501.689849 291.912639,502 290.215156,502 C288.517674,502 287.027347,501.689849 285.744131,501.069538 C284.460915,500.449227 283.394952,499.620463 282.546211,498.583221 C281.69747,497.54598 281.060923,496.346051 280.636553,494.983401 C280.212182,493.62075 280,492.186937 280,490.68192 Z M304,479.333333 L306.271886,479.333333 L318.707473,497.498747 L318.76726,497.498747 L318.76726,479.333333 L320.8,479.333333 L320.8,500.807018 L318.528114,500.807018 L306.092527,482.641604 L306.03274,482.641604 L306.03274,500.807018 L304,500.807018 L304,479.333333 Z M332.8,490.070175 C332.8,491.245434 332.950092,492.405477 333.250279,493.550341 C333.550467,494.695204 334.015267,495.718474 334.644693,496.620181 C335.274119,497.521888 336.082677,498.246282 337.070391,498.793385 C338.058105,499.340488 339.239472,499.614035 340.614525,499.614035 C341.989579,499.614035 343.166103,499.340488 344.144134,498.793385 C345.122165,498.246282 345.925881,497.521888 346.555307,496.620181 C347.184733,495.718474 347.649533,494.695204 347.949721,493.550341 C348.249908,492.405477 348.4,491.245434 348.4,490.070175 C348.4,488.874654 348.249908,487.709545 347.949721,486.574813 C347.649533,485.440081 347.184733,484.421877 346.555307,483.52017 C345.925881,482.618463 345.122165,481.894069 344.144134,481.346966 C343.166103,480.799863 341.989579,480.526316 340.614525,480.526316 C339.239472,480.526316 338.058105,480.799863 337.070391,481.346966 C336.082677,481.894069 335.274119,482.618463 334.644693,483.52017 C334.015267,484.421877 333.550467,485.440081 333.250279,486.574813 C332.950092,487.709545 332.8,488.874654 332.8,490.070175 Z M330.4,490.68192 C330.4,489.176903 330.612182,487.74309 331.036553,486.38044 C331.460923,485.017789 332.09747,483.812776 332.946211,482.765366 C333.794952,481.717955 334.860915,480.884107 336.144131,480.263795 C337.427347,479.643484 338.917674,479.333333 340.615156,479.333333 C342.312639,479.333333 343.797913,479.643484 345.071025,480.263795 C346.344137,480.884107 347.405048,481.717955 348.253789,482.765366 C349.10253,483.812776 349.739077,485.017789 350.163447,486.38044 C350.587818,487.74309 350.8,489.176903 350.8,490.68192 C350.8,492.186937 350.587818,493.62075 350.163447,494.983401 C349.739077,496.346051 349.10253,497.54598 348.253789,498.583221 C347.405048,499.620463 346.344137,500.449227 345.071025,501.069538 C343.797913,501.689849 342.312639,502 340.615156,502 C338.917674,502 337.427347,501.689849 336.144131,501.069538 C334.860915,500.449227 333.794952,499.620463 332.946211,498.583221 C332.09747,497.54598 331.460923,496.346051 331.036553,494.983401 C330.612182,493.62075 330.4,492.186937 330.4,490.68192 Z M355.6,479.333333 L368.8,479.333333 L368.8,481.077694 L357.581457,481.077694 L357.581457,488.837093 L367.54702,488.837093 L367.54702,490.581454 L357.581457,490.581454 L357.581457,500.807018 L355.6,500.807018 L355.6,479.333333 Z M394.037855,485.187457 C393.856151,484.353596 393.558362,483.606183 393.144479,482.945196 C392.730597,482.284209 392.22587,481.730005 391.630284,481.282567 C391.034697,480.83513 390.378552,480.494472 389.66183,480.260584 C388.945107,480.026696 388.193064,479.909754 387.405678,479.909754 C385.972233,479.909754 384.740699,480.184314 383.711041,480.733442 C382.681383,481.28257 381.838489,482.009645 381.182334,482.914689 C380.52618,483.819733 380.041642,484.841706 379.728707,485.980638 C379.415771,487.11957 379.259306,488.288992 379.259306,489.488938 C379.259306,490.668546 379.415771,491.832883 379.728707,492.981984 C380.041642,494.131085 380.52618,495.158142 381.182334,496.063186 C381.838489,496.96823 382.681383,497.695306 383.711041,498.244433 C384.740699,498.793561 385.972233,499.068121 387.405678,499.068121 C388.415147,499.068121 389.323655,498.885081 390.13123,498.518996 C390.938805,498.152911 391.635328,497.654635 392.22082,497.024155 C392.806312,496.393675 393.280755,495.656431 393.644164,494.812401 C394.007573,493.968371 394.239747,493.058256 394.340694,492.082029 L396.4,492.082029 C396.258674,493.424341 395.945744,494.634439 395.461199,495.712356 C394.976654,496.790274 394.350792,497.705473 393.583596,498.457982 C392.8164,499.210491 391.912939,499.790117 390.873186,500.196878 C389.833433,500.60364 388.677609,500.807018 387.405678,500.807018 C385.709771,500.807018 384.220827,500.496867 382.938801,499.876555 C381.656776,499.256244 380.591802,498.42748 379.743849,497.390239 C378.895895,496.352997 378.259939,495.153069 377.835962,493.790418 C377.411985,492.427767 377.2,490.993955 377.2,489.488938 C377.2,487.98392 377.411985,486.550108 377.835962,485.187457 C378.259939,483.824806 378.895895,482.619794 379.743849,481.572383 C380.591802,480.524973 381.656776,479.691124 382.938801,479.070813 C384.220827,478.450502 385.709771,478.140351 387.405678,478.140351 C388.435336,478.140351 389.439743,478.292884 390.418927,478.597955 C391.398112,478.903026 392.286431,479.355542 393.083912,479.955515 C393.881392,480.555488 394.547631,481.292732 395.08265,482.167269 C395.617668,483.041806 395.955835,484.048525 396.097161,485.187457 L394.037855,485.187457 Z M400,479.333333 L414.255422,479.333333 L414.255422,481.077694 L401.966265,481.077694 L401.966265,488.837093 L413.474699,488.837093 L413.474699,490.581454 L401.966265,490.581454 L401.966265,499.062657 L414.4,499.062657 L414.4,500.807018 L400,500.807018 L400,479.333333 Z M420.986823,479.333333 L428.065593,498.160401 L435.413177,479.333333 L438.4,479.333333 L438.4,500.807018 L436.36896,500.807018 L436.36896,482.250627 L436.309224,482.250627 L429.021376,500.807018 L427.10981,500.807018 L420.090776,482.250627 L420.03104,482.250627 L420.03104,500.807018 L418,500.807018 L418,479.333333 L420.986823,479.333333 Z M443.2,479.333333 L457.455422,479.333333 L457.455422,481.077694 L445.166265,481.077694 L445.166265,488.837093 L456.674699,488.837093 L456.674699,490.581454 L445.166265,490.581454 L445.166265,499.062657 L457.6,499.062657 L457.6,500.807018 L443.2,500.807018 L443.2,479.333333 Z M459.223529,479.333333 L461.643697,479.333333 L467.754622,488.325815 L474.077311,479.333333 L476.376471,479.333333 L468.994958,489.799499 L476.8,500.807018 L474.319328,500.807018 L467.754622,491.333333 L461.09916,500.807018 L458.8,500.807018 L466.544538,489.739348 L459.223529,479.333333 Z" id="Shape-Copy"></path>
        </g>
    </g>
</svg>